<mxfile host="app.diagrams.net" modified="2023-12-17T13:24:37.919Z" agent="Mozilla/5.0 (Macintosh; Intel Mac OS X 10_15_7) AppleWebKit/605.1.15 (KHTML, like Gecko) Version/16.4 Safari/605.1.15" etag="QljxRDZfv2vi_H-C_v2q" version="22.1.11" type="github">
  <diagram name="第 1 页" id="7HdzbrAO2JuwLUn12Y_D">
    <mxGraphModel dx="506" dy="375" grid="1" gridSize="10" guides="1" tooltips="1" connect="1" arrows="1" fold="1" page="1" pageScale="1" pageWidth="827" pageHeight="1169" math="0" shadow="0">
      <root>
        <mxCell id="0" />
        <mxCell id="1" parent="0" />
        <mxCell id="Pybhcf5Tkc2RzTyl9OEx-3" value="宿主机1" style="rounded=0;whiteSpace=wrap;html=1;verticalAlign=bottom;fillColor=#f5f5f5;fontColor=#333333;strokeColor=#666666;" vertex="1" parent="1">
          <mxGeometry x="70" y="320" width="80" height="90" as="geometry" />
        </mxCell>
        <mxCell id="Pybhcf5Tkc2RzTyl9OEx-26" value="VM" style="rounded=0;whiteSpace=wrap;html=1;" vertex="1" parent="1">
          <mxGeometry x="80" y="350" width="40" height="20" as="geometry" />
        </mxCell>
        <mxCell id="Pybhcf5Tkc2RzTyl9OEx-57" style="edgeStyle=orthogonalEdgeStyle;rounded=0;orthogonalLoop=1;jettySize=auto;html=1;entryX=0.5;entryY=0;entryDx=0;entryDy=0;endArrow=openThin;endFill=0;fillColor=#f8cecc;strokeColor=#b85450;" edge="1" parent="1" source="Pybhcf5Tkc2RzTyl9OEx-1" target="Pybhcf5Tkc2RzTyl9OEx-2">
          <mxGeometry relative="1" as="geometry" />
        </mxCell>
        <mxCell id="Pybhcf5Tkc2RzTyl9OEx-1" value="控制台" style="rounded=0;whiteSpace=wrap;html=1;" vertex="1" parent="1">
          <mxGeometry x="160" y="160" width="80" height="40" as="geometry" />
        </mxCell>
        <mxCell id="Pybhcf5Tkc2RzTyl9OEx-7" style="rounded=0;orthogonalLoop=1;jettySize=auto;html=1;entryX=0.5;entryY=0;entryDx=0;entryDy=0;exitX=0.25;exitY=1;exitDx=0;exitDy=0;endArrow=openThin;endFill=0;fillColor=#f8cecc;strokeColor=#b85450;" edge="1" parent="1" source="Pybhcf5Tkc2RzTyl9OEx-2" target="Pybhcf5Tkc2RzTyl9OEx-3">
          <mxGeometry relative="1" as="geometry" />
        </mxCell>
        <mxCell id="Pybhcf5Tkc2RzTyl9OEx-8" style="rounded=0;orthogonalLoop=1;jettySize=auto;html=1;exitX=0.5;exitY=1;exitDx=0;exitDy=0;endArrow=openThin;endFill=0;fillColor=#f8cecc;strokeColor=#b85450;" edge="1" parent="1" source="Pybhcf5Tkc2RzTyl9OEx-2">
          <mxGeometry relative="1" as="geometry">
            <mxPoint x="200" y="320" as="targetPoint" />
          </mxGeometry>
        </mxCell>
        <mxCell id="Pybhcf5Tkc2RzTyl9OEx-9" style="rounded=0;orthogonalLoop=1;jettySize=auto;html=1;entryX=0.5;entryY=0;entryDx=0;entryDy=0;exitX=0.75;exitY=1;exitDx=0;exitDy=0;endArrow=openThin;endFill=0;fillColor=#f8cecc;strokeColor=#b85450;" edge="1" parent="1" source="Pybhcf5Tkc2RzTyl9OEx-2" target="Pybhcf5Tkc2RzTyl9OEx-5">
          <mxGeometry relative="1" as="geometry" />
        </mxCell>
        <mxCell id="Pybhcf5Tkc2RzTyl9OEx-10" style="rounded=0;orthogonalLoop=1;jettySize=auto;html=1;entryX=0.5;entryY=0;entryDx=0;entryDy=0;exitX=1;exitY=1;exitDx=0;exitDy=0;endArrow=openThin;endFill=0;fillColor=#f8cecc;strokeColor=#b85450;" edge="1" parent="1" source="Pybhcf5Tkc2RzTyl9OEx-2" target="Pybhcf5Tkc2RzTyl9OEx-6">
          <mxGeometry relative="1" as="geometry" />
        </mxCell>
        <mxCell id="Pybhcf5Tkc2RzTyl9OEx-2" value="计算控制器" style="rounded=0;whiteSpace=wrap;html=1;" vertex="1" parent="1">
          <mxGeometry x="160" y="240" width="80" height="40" as="geometry" />
        </mxCell>
        <mxCell id="Pybhcf5Tkc2RzTyl9OEx-4" value="宿主机2" style="rounded=0;whiteSpace=wrap;html=1;verticalAlign=bottom;fillColor=#f5f5f5;fontColor=#333333;strokeColor=#666666;" vertex="1" parent="1">
          <mxGeometry x="160" y="320" width="80" height="90" as="geometry" />
        </mxCell>
        <mxCell id="Pybhcf5Tkc2RzTyl9OEx-5" value="宿主机3" style="rounded=0;whiteSpace=wrap;html=1;verticalAlign=bottom;fillColor=#f5f5f5;fontColor=#333333;strokeColor=#666666;" vertex="1" parent="1">
          <mxGeometry x="250" y="320" width="80" height="90" as="geometry" />
        </mxCell>
        <mxCell id="Pybhcf5Tkc2RzTyl9OEx-6" value="宿主机n" style="rounded=0;whiteSpace=wrap;html=1;verticalAlign=bottom;fillColor=#f5f5f5;fontColor=#333333;strokeColor=#666666;" vertex="1" parent="1">
          <mxGeometry x="360" y="320" width="80" height="90" as="geometry" />
        </mxCell>
        <mxCell id="Pybhcf5Tkc2RzTyl9OEx-52" style="edgeStyle=orthogonalEdgeStyle;rounded=0;orthogonalLoop=1;jettySize=auto;html=1;entryX=0.5;entryY=0;entryDx=0;entryDy=0;endArrow=openThin;endFill=0;dashed=1;fillColor=#f8cecc;strokeColor=#b85450;" edge="1" parent="1" source="Pybhcf5Tkc2RzTyl9OEx-11" target="Pybhcf5Tkc2RzTyl9OEx-36">
          <mxGeometry relative="1" as="geometry" />
        </mxCell>
        <mxCell id="Pybhcf5Tkc2RzTyl9OEx-11" value="cvk-agent" style="rounded=0;whiteSpace=wrap;html=1;" vertex="1" parent="1">
          <mxGeometry x="70" y="320" width="80" height="20" as="geometry" />
        </mxCell>
        <mxCell id="Pybhcf5Tkc2RzTyl9OEx-12" value="cvk-agent" style="rounded=0;whiteSpace=wrap;html=1;" vertex="1" parent="1">
          <mxGeometry x="160" y="320" width="80" height="20" as="geometry" />
        </mxCell>
        <mxCell id="Pybhcf5Tkc2RzTyl9OEx-13" value="cvk-agent" style="rounded=0;whiteSpace=wrap;html=1;" vertex="1" parent="1">
          <mxGeometry x="250" y="320" width="80" height="20" as="geometry" />
        </mxCell>
        <mxCell id="Pybhcf5Tkc2RzTyl9OEx-55" style="edgeStyle=orthogonalEdgeStyle;rounded=0;orthogonalLoop=1;jettySize=auto;html=1;entryX=0.5;entryY=0;entryDx=0;entryDy=0;endArrow=openThin;endFill=0;dashed=1;fillColor=#f8cecc;strokeColor=#b85450;" edge="1" parent="1" source="Pybhcf5Tkc2RzTyl9OEx-14" target="Pybhcf5Tkc2RzTyl9OEx-47">
          <mxGeometry relative="1" as="geometry" />
        </mxCell>
        <mxCell id="Pybhcf5Tkc2RzTyl9OEx-14" value="cvk-agent" style="rounded=0;whiteSpace=wrap;html=1;" vertex="1" parent="1">
          <mxGeometry x="360" y="320" width="80" height="20" as="geometry" />
        </mxCell>
        <mxCell id="Pybhcf5Tkc2RzTyl9OEx-35" value="VM" style="rounded=0;whiteSpace=wrap;html=1;" vertex="1" parent="1">
          <mxGeometry x="90" y="360" width="30" height="20" as="geometry" />
        </mxCell>
        <mxCell id="Pybhcf5Tkc2RzTyl9OEx-36" value="VM" style="rounded=0;whiteSpace=wrap;html=1;" vertex="1" parent="1">
          <mxGeometry x="90" y="360" width="40" height="20" as="geometry" />
        </mxCell>
        <mxCell id="Pybhcf5Tkc2RzTyl9OEx-37" value="VM" style="rounded=0;whiteSpace=wrap;html=1;" vertex="1" parent="1">
          <mxGeometry x="100" y="370" width="40" height="20" as="geometry" />
        </mxCell>
        <mxCell id="Pybhcf5Tkc2RzTyl9OEx-38" value="VM" style="rounded=0;whiteSpace=wrap;html=1;" vertex="1" parent="1">
          <mxGeometry x="170" y="350" width="40" height="20" as="geometry" />
        </mxCell>
        <mxCell id="Pybhcf5Tkc2RzTyl9OEx-39" value="VM" style="rounded=0;whiteSpace=wrap;html=1;" vertex="1" parent="1">
          <mxGeometry x="180" y="360" width="40" height="20" as="geometry" />
        </mxCell>
        <mxCell id="Pybhcf5Tkc2RzTyl9OEx-44" value="VM" style="rounded=0;whiteSpace=wrap;html=1;" vertex="1" parent="1">
          <mxGeometry x="260" y="350" width="40" height="20" as="geometry" />
        </mxCell>
        <mxCell id="Pybhcf5Tkc2RzTyl9OEx-47" value="VM" style="rounded=0;whiteSpace=wrap;html=1;" vertex="1" parent="1">
          <mxGeometry x="380" y="360" width="40" height="20" as="geometry" />
        </mxCell>
        <mxCell id="Pybhcf5Tkc2RzTyl9OEx-50" value="VM" style="rounded=0;whiteSpace=wrap;html=1;" vertex="1" parent="1">
          <mxGeometry x="270" y="360" width="40" height="20" as="geometry" />
        </mxCell>
        <mxCell id="Pybhcf5Tkc2RzTyl9OEx-53" style="edgeStyle=orthogonalEdgeStyle;rounded=0;orthogonalLoop=1;jettySize=auto;html=1;entryX=0.5;entryY=0;entryDx=0;entryDy=0;endArrow=openThin;endFill=0;dashed=1;fillColor=#f8cecc;strokeColor=#b85450;" edge="1" parent="1" source="Pybhcf5Tkc2RzTyl9OEx-12" target="Pybhcf5Tkc2RzTyl9OEx-39">
          <mxGeometry relative="1" as="geometry" />
        </mxCell>
        <mxCell id="Pybhcf5Tkc2RzTyl9OEx-54" style="edgeStyle=orthogonalEdgeStyle;rounded=0;orthogonalLoop=1;jettySize=auto;html=1;entryX=0.5;entryY=0;entryDx=0;entryDy=0;endArrow=openThin;endFill=0;dashed=1;fillColor=#f8cecc;strokeColor=#b85450;" edge="1" parent="1" source="Pybhcf5Tkc2RzTyl9OEx-13" target="Pybhcf5Tkc2RzTyl9OEx-50">
          <mxGeometry relative="1" as="geometry" />
        </mxCell>
        <mxCell id="Pybhcf5Tkc2RzTyl9OEx-56" value="……" style="text;html=1;strokeColor=none;fillColor=none;align=center;verticalAlign=middle;whiteSpace=wrap;rounded=0;" vertex="1" parent="1">
          <mxGeometry x="310" y="355" width="70" height="30" as="geometry" />
        </mxCell>
      </root>
    </mxGraphModel>
  </diagram>
</mxfile>
